<?xml version="1.0" encoding="UTF-8" standalone="no"?>
<!-- Created with Inkscape (http://www.inkscape.org/) -->

<svg
   width="1024"
   height="1024"
   viewBox="0 0 270.93333 270.93334"
   version="1.1"
   id="svg5"
   inkscape:version="1.1.1 (c3084ef, 2021-09-22)"
   sodipodi:docname="AppIcon.svg"
   inkscape:export-filename="/Users/sergiitokariev/dev/lightswitch/AppIcon.png"
   inkscape:export-xdpi="96"
   inkscape:export-ydpi="96"
   xmlns:inkscape="http://www.inkscape.org/namespaces/inkscape"
   xmlns:sodipodi="http://sodipodi.sourceforge.net/DTD/sodipodi-0.dtd"
   xmlns="http://www.w3.org/2000/svg"
   xmlns:svg="http://www.w3.org/2000/svg">
  <sodipodi:namedview
     id="namedview7"
     pagecolor="#ffffff"
     bordercolor="#666666"
     borderopacity="1.0"
     inkscape:pageshadow="2"
     inkscape:pageopacity="0.0"
     inkscape:pagecheckerboard="0"
     inkscape:document-units="mm"
     showgrid="false"
     units="px"
     inkscape:zoom="0.66308594"
     inkscape:cx="512"
     inkscape:cy="512"
     inkscape:window-width="1454"
     inkscape:window-height="905"
     inkscape:window-x="0"
     inkscape:window-y="34"
     inkscape:window-maximized="1"
     inkscape:current-layer="layer1" />
  <defs
     id="defs2" />
  <g
     inkscape:label="Layer 1"
     inkscape:groupmode="layer"
     id="layer1">
    <rect
       style="fill:#404952;fill-opacity:1;fill-rule:evenodd;stroke-width:0.264583"
       id="rect1736"
       width="211.66667"
       height="211.66667"
       x="38.629173"
       y="38.629173"
       rx="52.916668"
       ry="52.916668" />
    <rect
       style="fill:#a7b1ba;fill-opacity:1;fill-rule:evenodd;stroke-width:0.264583"
       id="rect31"
       width="211.66667"
       height="211.66667"
       x="29.633331"
       y="29.633331"
       rx="52.916668"
       ry="52.916668" />
  </g>
  <g
     inkscape:groupmode="layer"
     id="layer2"
     inkscape:label="GlobeIcon">
    <g
       style="fill:none;stroke:#3e3e3e;stroke-opacity:1"
       id="g315"
       transform="matrix(0.28864725,0,0,0.28864725,74.850744,74.889372)">
      <path
         stroke-width="26"
         d="m 209,15 a 195,195 0 1 0 2,0 z"
         id="path303"
         style="stroke:#3e3e3e;stroke-opacity:1" />
      <path
         stroke-width="18"
         d="M 210,15 V 405 M 405,210 H 15 M 59,90 a 260,260 0 0 0 302,0 m 0,240 A 260,260 0 0 0 59,330 M 195,20 a 250,250 0 0 0 0,382 m 30,0 a 250,250 0 0 0 0,-382"
         id="path305"
         style="stroke:#3e3e3e;stroke-opacity:1" />
    </g>
  </g>
</svg>
